<svg xmlns="http://www.w3.org/2000/svg" version="1.1" xmlns:xlink="http://www.w3.org/1999/xlink" xmlns:svgjs="http://svgjs.com/svgjs" width="1366" height="768" preserveAspectRatio="none" viewBox="0 0 1366 768"><g mask="url(&quot;#SvgjsMask1031&quot;)" fill="none"><rect width="1366" height="768" x="0" y="0" fill="rgba(249, 116, 37, 1)"></rect><path d="M0,649.125C119.032,633.561,176.687,496.851,275.468,428.637C369.695,363.568,502.059,353.519,565.816,258.399C632.604,158.757,643.809,28.556,622.792,-89.544C602.13,-205.653,536.047,-309.204,450.383,-390.259C369.716,-466.585,266.125,-517.034,155.984,-531.234C54.758,-544.285,-36.462,-484.552,-136.82,-465.967C-252.166,-444.607,-384.434,-485.099,-477.658,-413.893C-574.176,-340.17,-615.733,-211.147,-628.553,-90.372C-641.124,28.064,-601.954,144.076,-548.163,250.338C-495.97,353.443,-419.463,439.301,-326.013,507.286C-228.199,578.446,-119.939,664.808,0,649.125" fill="#df5706"></path><path d="M1366 1301.458C1485.068 1325.223 1627.8319999999999 1398.675 1722.261 1322.3519999999999 1819.537 1243.728 1745.633 1078.377 1787.726 960.596 1824.469 857.783 1943.473 792.937 1950.403 683.976 1957.702 569.225 1908.472 449.407 1825.289 370.024 1744.373 292.805 1621.256 295.559 1513.185 266.734 1408.2 238.73199999999997 1302.482 166.66600000000005 1200.187 203.293 1098.212 239.80600000000004 1072.608 370.496 999.693 450.593 924.246 533.472 804.986 576.935 764.804 681.561 721.266 794.926 708.988 935.779 773.954 1038.378 838.381 1140.125 980.69 1147.403 1090.7440000000001 1196.306 1182.356 1237.0140000000001 1267.69 1281.836 1366 1301.458" fill="#fb985d"></path></g><defs><mask id="SvgjsMask1031"><rect width="1366" height="768" fill="#ffffff"></rect></mask></defs></svg>