<svg xmlns="http://www.w3.org/2000/svg" version="1.1" xmlns:xlink="http://www.w3.org/1999/xlink" xmlns:svgjs="http://svgjs.com/svgjs" width="3000" height="1800" preserveAspectRatio="none" viewBox="0 0 3000 1800"><g mask="url(&quot;#SvgjsMask1169&quot;)" fill="none"><path d="M 0,177 C 200,152.2 600,56.2 1000,53 C 1400,49.8 1600,159.4 2000,161 C 2400,162.6 2800,81 3000,61L3000 1800L0 1800z" fill="rgba(138, 78, 178, 0)"></path><path d="M 0,264 C 200,278.6 600,348 1000,337 C 1400,326 1600,205 2000,209 C 2400,213 2800,327.4 3000,357L3000 1800L0 1800z" fill="rgba(12, 114, 113, 0)"></path><path d="M 0,421 C 46.2,436.6 138.6,506 231,499 C 323.4,492 369.6,385.2 462,386 C 554.4,386.8 600.6,498.4 693,503 C 785.4,507.6 831.6,407.8 924,409 C 1016.4,410.2 1062.6,516.8 1155,509 C 1247.4,501.2 1293.6,369.6 1386,370 C 1478.4,370.4 1524.6,496.4 1617,511 C 1709.4,525.6 1755.6,441.6 1848,443 C 1940.4,444.4 1986.6,524.2 2079,518 C 2171.4,511.8 2217.6,413.8 2310,412 C 2402.4,410.2 2448.6,513 2541,509 C 2633.4,505 2680.2,391.4 2772,392 C 2863.8,392.6 2954.4,488 3000,512L3000 1800L0 1800z" fill="rgba(19, 51, 83, 0.95)"></path><path d="M 0,606 C 200,623.8 600,693.4 1000,695 C 1400,696.6 1600,610.2 2000,614 C 2400,617.8 2800,694 3000,714L3000 1800L0 1800z" fill="rgba(214, 196, 93, 0)"></path><path d="M 0,728 C 600,756.6 2400,842.4 3000,871L3000 1800L0 1800z" fill="rgba(185, 113, 71, 0)"></path><path d="M 0,955 C 300,976.2 900,1065 1500,1061 C 2100,1057 2700,960.2 3000,935L3000 1800L0 1800z" fill="rgba(238, 37, 28, 0)"></path><path d="M 0,1238 C 200,1212.8 600,1114.6 1000,1112 C 1400,1109.4 1600,1224.2 2000,1225 C 2400,1225.8 2800,1137.8 3000,1116L3000 1800L0 1800z" fill="rgba(120, 224, 184, 0)"></path><path d="M 0,1315 C 200,1331.2 600,1398.2 1000,1396 C 1400,1393.8 1600,1304.8 2000,1304 C 2400,1303.2 2800,1374.4 3000,1392L3000 1800L0 1800z" fill="rgba(32, 183, 156, 0.53)"></path><path d="M 0,1599 C 120,1573.6 360,1480.8 600,1472 C 840,1463.2 960,1547 1200,1555 C 1440,1563 1560,1513.6 1800,1512 C 2040,1510.4 2160,1550.4 2400,1547 C 2640,1543.6 2880,1505.4 3000,1495L3000 1800L0 1800z" fill="rgba(236, 123, 61, 0.93)"></path><path d="M 0,1741 C 200,1719.6 600,1632.8 1000,1634 C 1400,1635.2 1600,1739.2 2000,1747 C 2400,1754.8 2800,1687.8 3000,1673L3000 1800L0 1800z" fill="rgba(248, 78, 2, 1)"></path></g><defs><mask id="SvgjsMask1169"><rect width="3000" height="1800" fill="#ffffff"></rect></mask></defs></svg>