<svg xmlns="http://www.w3.org/2000/svg" version="1.1" xmlns:xlink="http://www.w3.org/1999/xlink" xmlns:svgjs="http://svgjs.com/svgjs" width="1440" height="660" preserveAspectRatio="none" viewBox="0 0 1440 660"><g mask="url(&quot;#SvgjsMask1133&quot;)" fill="none"><path d="M 0,66 C 72,85.6 216,171.2 360,164 C 504,156.8 576,19.4 720,30 C 864,40.6 936,201.8 1080,217 C 1224,232.2 1368,128.2 1440,106L1440 660L0 660z" fill="rgba(32, 183, 156, 0.53)"></path><path d="M 0,312 C 48,337 144,442.4 240,437 C 336,431.6 384,284.4 480,285 C 576,285.6 624,445.2 720,440 C 816,434.8 864,275.4 960,259 C 1056,242.6 1104,347.4 1200,358 C 1296,368.6 1392,321.2 1440,312L1440 660L0 660z" fill="rgba(236, 123, 61, 0.93)"></path><path d="M 0,514 C 96,525.2 288,578.2 480,570 C 672,561.8 768,466.8 960,473 C 1152,479.2 1344,575.4 1440,601L1440 660L0 660z" fill="rgba(248, 78, 2, 1)"></path></g><defs><mask id="SvgjsMask1133"><rect width="1440" height="660" fill="#ffffff"></rect></mask></defs></svg>